<?xml version="1.0" encoding="UTF-8"?>
<svg id="Layer_3_copy_5" data-name="Layer 3 copy 5" xmlns="http://www.w3.org/2000/svg" viewBox="0 0 293.62 47.49">
  <defs>
    <style>
      .cls-1 {
        fill: #fff;
      }

      .cls-2 {
        fill: #5905dd;
      }

      .cls-3 {
        fill: #8b5cf6;
      }
    </style>
  </defs>
  <rect class="cls-2" x="2.95" y="2.95" width="27.19" height="27.19"/>
  <polygon class="cls-1" points="30.14 10.27 19.68 10.27 13.41 10.27 2.95 10.27 2.95 16.12 13.41 16.12 13.41 30.14 19.68 30.14 19.68 16.12 30.14 16.12 30.14 10.27"/>
  <path class="cls-3" d="M41.47,30.45c-1.52,0-2.82-.26-3.92-.79-1.1-.53-1.95-1.24-2.55-2.14-.6-.9-.9-1.92-.9-3.04s.29-2.17.86-3.06c.57-.89,1.49-1.58,2.73-2.07,1.25-.49,2.88-.73,4.91-.73h5.21v3.3h-4.62c-1.34,0-2.27.22-2.77.66-.5.44-.75.99-.75,1.65,0,.73.29,1.31.86,1.74.57.43,1.35.64,2.33.64s1.85-.22,2.62-.66,1.31-1.11,1.63-2.02l.88,2.68c-.42,1.22-1.17,2.17-2.27,2.84-1.1.67-2.52,1.01-4.25,1.01ZM47.48,30.16v-3.85l-.37-.84v-6.89c0-1.22-.37-2.18-1.12-2.86-.75-.68-1.89-1.03-3.43-1.03-1.05,0-2.08.17-3.1.5-1.01.33-1.89.78-2.62,1.34l-2.02-4c1.08-.78,2.37-1.37,3.89-1.78,1.52-.4,3.06-.6,4.62-.6,3.01,0,5.34.71,7,2.13,1.66,1.42,2.49,3.63,2.49,6.64v11.26h-5.35Z"/>
  <path class="cls-3" d="M58,30.16V2.95h5.72v27.21h-5.72Z"/>
  <path class="cls-3" d="M78.83,30.45c-2.25,0-4.22-.44-5.9-1.32-1.69-.88-2.99-2.08-3.92-3.61-.93-1.53-1.39-3.27-1.39-5.22s.45-3.7,1.34-5.24c.89-1.54,2.14-2.74,3.74-3.61,1.6-.87,3.4-1.3,5.41-1.3s3.67.42,5.22,1.25c1.55.83,2.78,2,3.69,3.52.9,1.52,1.36,3.34,1.36,5.46,0,.22-.01.47-.04.75-.02.28-.05.54-.07.79h-16.02v-3.34h13.02l-2.24.99c.02-1.03-.17-1.92-.59-2.68-.42-.76-.99-1.35-1.72-1.78-.73-.43-1.59-.64-2.57-.64s-1.84.21-2.58.64c-.75.43-1.33,1.03-1.74,1.8-.42.77-.62,1.68-.62,2.73v.88c0,1.1.24,2.05.73,2.86.49.81,1.16,1.42,2.02,1.85.86.43,1.88.64,3.08.64,1.03,0,1.94-.16,2.73-.48.79-.32,1.52-.79,2.18-1.43l3.04,3.3c-.9,1.03-2.04,1.81-3.41,2.36-1.37.55-2.95.82-4.73.82Z"/>
  <path class="cls-3" d="M104.16,10.14c1.56,0,2.96.31,4.2.94,1.23.62,2.21,1.58,2.91,2.86.71,1.28,1.06,2.93,1.06,4.93v11.29h-5.72v-10.41c0-1.59-.35-2.76-1.05-3.52-.7-.76-1.68-1.14-2.95-1.14-.9,0-1.72.2-2.44.59-.72.39-1.28.97-1.69,1.72-.4.76-.61,1.76-.61,3.01v9.75h-5.72V10.43h5.46v5.46l-1.03-1.65c.71-1.32,1.72-2.33,3.04-3.04,1.32-.71,2.82-1.06,4.51-1.06Z"/>
  <path class="cls-3" d="M115.16,15.27v-4.4h13.68v4.4h-13.68ZM125.58,30.45c-2.32,0-4.13-.59-5.43-1.78-1.3-1.19-1.94-2.95-1.94-5.3V6.07h5.76v17.2c0,.83.21,1.48.64,1.94.43.46,1.01.7,1.74.7.93,0,1.71-.24,2.35-.73l1.5,4.03c-.56.42-1.25.73-2.07.94-.82.21-1.67.31-2.55.31Z"/>
  <path class="cls-3" d="M173.64,30.34c-1.88,0-3.56-.42-5.02-1.27-1.47-.84-2.63-2.01-3.48-3.5-.86-1.49-1.28-3.18-1.28-5.06s.43-3.63,1.28-5.1c.86-1.47,2.02-2.62,3.48-3.45,1.47-.83,3.14-1.25,5.02-1.25s3.6.42,5.08,1.27c1.48.84,2.64,1.99,3.48,3.45.84,1.45,1.27,3.15,1.27,5.08s-.42,3.6-1.27,5.08c-.84,1.48-2.01,2.64-3.5,3.48-1.49.84-3.18,1.27-5.06,1.27ZM173.64,28.03c1.39,0,2.63-.31,3.7-.94,1.08-.62,1.92-1.5,2.55-2.64.62-1.14.93-2.45.93-3.94s-.31-2.84-.93-3.96c-.62-1.12-1.47-2-2.55-2.62-1.08-.62-2.3-.93-3.67-.93s-2.59.31-3.67.93c-1.08.62-1.93,1.5-2.57,2.62-.64,1.12-.95,2.44-.95,3.96s.32,2.8.95,3.94c.64,1.14,1.49,2.02,2.55,2.64,1.06.62,2.28.94,3.65.94Z"/>
  <path class="cls-3" d="M198.61,10.72c1.56,0,2.94.3,4.12.9,1.19.6,2.11,1.51,2.79,2.73.67,1.22,1.01,2.76,1.01,4.62v11.18h-2.6v-10.93c0-2.03-.51-3.56-1.52-4.6-1.01-1.04-2.44-1.56-4.27-1.56-1.37,0-2.56.27-3.57.82-1.01.55-1.8,1.34-2.35,2.38-.55,1.04-.82,2.29-.82,3.76v10.12h-2.6V10.91h2.49v5.28l-.4-.99c.61-1.39,1.59-2.49,2.93-3.28,1.34-.79,2.95-1.19,4.8-1.19Z"/>
  <path class="cls-3" d="M223.39,10.72c1.56,0,2.94.3,4.12.9,1.19.6,2.11,1.51,2.79,2.73.67,1.22,1.01,2.76,1.01,4.62v11.18h-2.6v-10.93c0-2.03-.51-3.56-1.52-4.6-1.01-1.04-2.44-1.56-4.27-1.56-1.37,0-2.56.27-3.57.82-1.01.55-1.8,1.34-2.35,2.38-.55,1.04-.82,2.29-.82,3.76v10.12h-2.6V10.91h2.49v5.28l-.4-.99c.61-1.39,1.59-2.49,2.93-3.28,1.34-.79,2.95-1.19,4.8-1.19Z"/>
  <path class="cls-3" d="M246.53,30.34c-2,0-3.76-.42-5.28-1.27-1.52-.84-2.7-2-3.56-3.48-.86-1.48-1.28-3.17-1.28-5.08s.41-3.59,1.23-5.06c.82-1.47,1.94-2.62,3.37-3.46,1.43-.84,3.04-1.27,4.82-1.27s3.42.41,4.82,1.23c1.41.82,2.51,1.97,3.32,3.45.81,1.48,1.21,3.18,1.21,5.11,0,.12,0,.25-.02.38-.01.13-.02.27-.02.42h-16.76v-1.94h15.36l-1.03.77c0-1.39-.3-2.63-.9-3.72-.6-1.09-1.41-1.94-2.44-2.55-1.03-.61-2.21-.92-3.56-.92s-2.51.31-3.56.92c-1.05.61-1.87,1.47-2.46,2.57s-.88,2.36-.88,3.78v.4c0,1.47.32,2.76.97,3.87.65,1.11,1.55,1.98,2.71,2.6,1.16.62,2.49.94,3.98.94,1.17,0,2.27-.21,3.28-.62,1.01-.42,1.89-1.05,2.62-1.91l1.47,1.69c-.86,1.03-1.92,1.81-3.21,2.35-1.28.54-2.69.81-4.23.81Z"/>
  <path class="cls-3" d="M268.49,30.34c-1.91,0-3.61-.42-5.11-1.27-1.5-.84-2.68-2-3.54-3.48-.86-1.48-1.28-3.17-1.28-5.08s.43-3.63,1.28-5.1c.86-1.47,2.03-2.62,3.54-3.45,1.5-.83,3.21-1.25,5.11-1.25,1.64,0,3.12.32,4.44.95,1.32.64,2.36,1.59,3.12,2.86l-1.94,1.32c-.66-.98-1.48-1.7-2.46-2.16-.98-.46-2.04-.7-3.19-.7-1.37,0-2.6.31-3.7.93s-1.97,1.5-2.6,2.62c-.64,1.12-.95,2.44-.95,3.96s.32,2.84.95,3.96c.64,1.12,1.5,2,2.6,2.62,1.1.62,2.33.94,3.7.94,1.15,0,2.21-.23,3.19-.7.98-.46,1.8-1.17,2.46-2.13l1.94,1.32c-.76,1.25-1.8,2.19-3.12,2.84-1.32.65-2.8.97-4.44.97Z"/>
  <path class="cls-3" d="M278.14,13.07v-2.16h11.92v2.16h-11.92ZM287.23,30.34c-1.81,0-3.2-.49-4.18-1.47-.98-.98-1.47-2.36-1.47-4.14V6.65h2.6v17.93c0,1.12.29,1.99.86,2.6.57.61,1.4.92,2.47.92,1.15,0,2.1-.33,2.86-.99l.92,1.87c-.51.46-1.13.81-1.85,1.03-.72.22-1.46.33-2.22.33Z"/>
  <g>
    <path class="cls-3" d="M167.64,44.77v-9.04h-3.5v-.91h8.04v.91h-3.5v9.04h-1.05Z"/>
    <path class="cls-3" d="M175.75,44.84c-.56,0-1.04-.09-1.46-.28-.41-.18-.73-.44-.95-.77-.22-.33-.33-.7-.33-1.13,0-.39.09-.74.28-1.06.18-.32.49-.57.91-.77s.99-.29,1.7-.29h2.57v.75h-2.54c-.72,0-1.22.13-1.5.38-.28.26-.42.57-.42.95,0,.43.17.77.5,1.02.33.26.8.38,1.39.38s1.06-.13,1.47-.39.71-.64.9-1.13l.23.7c-.19.49-.52.89-.99,1.18-.47.29-1.06.44-1.77.44ZM178.33,44.77v-1.65l-.04-.27v-2.76c0-.63-.18-1.12-.53-1.46-.36-.34-.88-.51-1.58-.51-.48,0-.94.08-1.38.24-.44.16-.81.37-1.11.64l-.45-.75c.38-.32.83-.57,1.36-.75.53-.18,1.09-.26,1.68-.26.97,0,1.71.24,2.24.72.53.48.79,1.21.79,2.18v4.63h-.97Z"/>
    <path class="cls-3" d="M182.03,44.77v-10.55h1.01v10.55h-1.01Z"/>
    <path class="cls-3" d="M189.03,44.84c-.78,0-1.46-.16-2.05-.49-.59-.33-1.05-.78-1.38-1.35-.33-.57-.5-1.23-.5-1.97s.16-1.39.48-1.96c.32-.57.75-1.02,1.31-1.34.55-.33,1.18-.49,1.87-.49s1.32.16,1.87.48c.54.32.97.76,1.29,1.34s.47,1.23.47,1.98c0,.05,0,.1,0,.15s0,.11,0,.16h-6.5v-.75h5.95l-.4.3c0-.54-.12-1.02-.35-1.44-.23-.42-.55-.75-.95-.99-.4-.24-.86-.36-1.38-.36s-.97.12-1.38.36c-.41.24-.72.57-.95.99-.23.43-.34.91-.34,1.46v.16c0,.57.13,1.07.38,1.5.25.43.6.77,1.05,1.01.45.24.96.36,1.54.36.45,0,.88-.08,1.27-.24.39-.16.73-.41,1.02-.74l.57.65c-.33.4-.75.7-1.24.91-.5.21-1.04.31-1.64.31Z"/>
    <path class="cls-3" d="M198.25,37.24c.61,0,1.14.12,1.6.35s.82.59,1.08,1.06c.26.47.39,1.07.39,1.79v4.33h-1.01v-4.24c0-.79-.2-1.38-.59-1.78-.39-.4-.95-.6-1.66-.6-.53,0-.99.11-1.39.32-.39.21-.7.52-.91.92-.21.4-.32.89-.32,1.46v3.92h-1.01v-7.46h.97v2.05l-.16-.38c.24-.54.62-.96,1.14-1.27.52-.31,1.14-.46,1.86-.46Z"/>
    <path class="cls-3" d="M202.88,38.15v-.84h4.62v.84h-4.62ZM206.41,44.84c-.7,0-1.24-.19-1.62-.57-.38-.38-.57-.91-.57-1.61v-7.01h1.01v6.95c0,.44.11.77.33,1.01.22.24.54.36.96.36.45,0,.81-.13,1.11-.38l.36.72c-.2.18-.44.31-.72.4-.28.09-.57.13-.86.13Z"/>
    <path class="cls-3" d="M213.76,44.77v-9.95h4.05c1.06,0,1.99.21,2.79.63.8.42,1.42,1.01,1.87,1.76.45.75.67,1.61.67,2.59s-.22,1.84-.67,2.59c-.45.75-1.07,1.33-1.87,1.76-.8.42-1.73.63-2.79.63h-4.05ZM214.81,43.86h2.94c.88,0,1.65-.17,2.3-.52.65-.35,1.15-.82,1.51-1.44.36-.61.54-1.31.54-2.11s-.18-1.51-.54-2.12c-.36-.61-.86-1.08-1.51-1.43-.65-.35-1.41-.52-2.3-.52h-2.94v8.13Z"/>
    <path class="cls-3" d="M225.79,35.66c-.21,0-.38-.07-.53-.21-.14-.14-.21-.31-.21-.51s.07-.37.21-.5.32-.21.53-.21.38.07.53.2c.14.13.21.3.21.5s-.07.38-.21.53c-.14.14-.32.21-.53.21ZM225.28,44.77v-7.46h1.01v7.46h-1.01Z"/>
    <path class="cls-3" d="M231.11,44.84c-.62,0-1.2-.09-1.75-.26-.55-.18-.98-.4-1.29-.66l.45-.8c.3.23.69.42,1.17.59.47.17.97.25,1.49.25.71,0,1.22-.11,1.54-.33s.47-.52.47-.89c0-.27-.09-.49-.26-.65-.18-.16-.41-.27-.69-.36s-.6-.15-.95-.21c-.35-.06-.7-.12-1.04-.2s-.66-.19-.94-.33c-.28-.15-.51-.35-.69-.6-.18-.26-.26-.6-.26-1.02s.11-.77.34-1.09c.23-.32.56-.58,1-.76.44-.18.98-.28,1.61-.28.48,0,.97.06,1.45.19.48.13.88.3,1.19.5l-.44.81c-.33-.23-.69-.39-1.07-.49-.38-.1-.76-.15-1.14-.15-.67,0-1.17.12-1.49.35-.32.23-.48.53-.48.89,0,.28.09.51.26.67.18.16.41.29.7.38.29.09.61.16.95.22.35.06.69.13,1.04.21.35.08.66.19.95.33s.52.33.7.58c.18.25.26.58.26.99,0,.44-.12.81-.36,1.13-.24.32-.59.56-1.05.74-.46.18-1.02.26-1.67.26Z"/>
    <path class="cls-3" d="M239.14,44.84c-.74,0-1.4-.16-1.98-.49-.58-.33-1.04-.78-1.37-1.35-.33-.57-.5-1.23-.5-1.97s.17-1.41.5-1.98c.33-.57.79-1.01,1.37-1.34.58-.32,1.24-.48,1.98-.48.63,0,1.21.12,1.72.37.51.25.91.62,1.21,1.11l-.75.51c-.26-.38-.57-.66-.95-.84-.38-.18-.79-.27-1.24-.27-.53,0-1.01.12-1.44.36-.43.24-.76.58-1.01,1.02s-.37.95-.37,1.54.12,1.1.37,1.53c.25.44.58.77,1.01,1.02.43.24.9.36,1.44.36.45,0,.86-.09,1.24-.27.38-.18.7-.45.95-.82l.75.51c-.29.48-.7.85-1.21,1.1-.51.25-1.09.38-1.72.38Z"/>
    <path class="cls-3" d="M247.08,44.84c-.73,0-1.38-.16-1.95-.49s-1.02-.78-1.35-1.36c-.33-.58-.5-1.23-.5-1.96s.17-1.41.5-1.98c.33-.57.78-1.01,1.35-1.34s1.22-.48,1.95-.48,1.4.16,1.97.49,1.02.77,1.35,1.34.49,1.22.49,1.97-.16,1.4-.49,1.97c-.33.57-.78,1.02-1.36,1.35-.58.33-1.23.49-1.96.49ZM247.08,43.94c.54,0,1.02-.12,1.44-.36.42-.24.75-.58.99-1.02.24-.44.36-.95.36-1.53s-.12-1.1-.36-1.54-.57-.77-.99-1.02c-.42-.24-.89-.36-1.42-.36s-1,.12-1.42.36c-.42.24-.75.58-.99,1.02s-.37.95-.37,1.54.12,1.09.37,1.53c.25.44.58.78.99,1.02.41.24.88.36,1.41.36Z"/>
    <path class="cls-3" d="M254.87,44.77l-3.31-7.46h1.05l3.04,6.92h-.5l3.08-6.92h.99l-3.33,7.46h-1.04Z"/>
    <path class="cls-3" d="M263.83,44.84c-.78,0-1.46-.16-2.05-.49-.59-.33-1.05-.78-1.38-1.35-.33-.57-.5-1.23-.5-1.97s.16-1.39.48-1.96.75-1.02,1.31-1.34c.55-.33,1.18-.49,1.87-.49s1.32.16,1.87.48c.54.32.97.76,1.29,1.34s.47,1.23.47,1.98c0,.05,0,.1,0,.15s0,.11,0,.16h-6.5v-.75h5.95l-.4.3c0-.54-.12-1.02-.35-1.44-.23-.42-.55-.75-.95-.99-.4-.24-.86-.36-1.38-.36s-.97.12-1.38.36c-.41.24-.72.57-.95.99-.23.43-.34.91-.34,1.46v.16c0,.57.13,1.07.38,1.5.25.43.6.77,1.05,1.01.45.24.96.36,1.54.36.45,0,.88-.08,1.27-.24.39-.16.73-.41,1.02-.74l.57.65c-.33.4-.75.7-1.24.91-.5.21-1.04.31-1.64.31Z"/>
    <path class="cls-3" d="M269.24,44.77v-7.46h.97v2.03l-.1-.36c.21-.57.56-1,1.05-1.3.49-.3,1.1-.45,1.83-.45v.98s-.08,0-.11,0c-.04,0-.08,0-.11,0-.79,0-1.4.24-1.85.72s-.67,1.16-.67,2.04v3.81h-1.01Z"/>
    <path class="cls-3" d="M278.11,44.84c-.78,0-1.46-.16-2.05-.49-.59-.33-1.05-.78-1.38-1.35-.33-.57-.5-1.23-.5-1.97s.16-1.39.48-1.96.75-1.02,1.31-1.34c.55-.33,1.18-.49,1.87-.49s1.32.16,1.87.48c.54.32.97.76,1.29,1.34s.47,1.23.47,1.98c0,.05,0,.1,0,.15s0,.11,0,.16h-6.5v-.75h5.95l-.4.3c0-.54-.12-1.02-.35-1.44-.23-.42-.55-.75-.95-.99-.4-.24-.86-.36-1.38-.36s-.97.12-1.38.36c-.41.24-.72.57-.95.99-.23.43-.34.91-.34,1.46v.16c0,.57.13,1.07.38,1.5.25.43.6.77,1.05,1.01.45.24.96.36,1.54.36.45,0,.88-.08,1.27-.24.39-.16.73-.41,1.02-.74l.57.65c-.33.4-.75.7-1.24.91-.5.21-1.04.31-1.64.31Z"/>
    <path class="cls-3" d="M286.49,44.84c-.71,0-1.35-.16-1.91-.48-.56-.32-1.01-.77-1.33-1.34-.32-.57-.48-1.23-.48-1.98s.16-1.42.48-1.99c.32-.57.77-1.01,1.33-1.33.56-.32,1.2-.48,1.91-.48.65,0,1.24.15,1.76.44.52.29.93.72,1.24,1.29.31.56.46,1.25.46,2.07s-.15,1.49-.45,2.06c-.3.57-.71,1-1.23,1.3-.52.3-1.11.45-1.77.45ZM286.56,43.94c.53,0,1.01-.12,1.43-.36.42-.24.75-.58.99-1.02.24-.44.36-.95.36-1.53s-.12-1.1-.36-1.54-.57-.77-.99-1.02c-.42-.24-.9-.36-1.43-.36s-.99.12-1.41.36c-.42.24-.75.58-.99,1.02s-.37.95-.37,1.54.12,1.09.37,1.53c.25.44.58.78.99,1.02.42.24.89.36,1.41.36ZM289.38,44.77v-2.25l.1-1.51-.14-1.51v-5.29h1.01v10.55h-.97Z"/>
  </g>
  <rect class="cls-3" x="2.95" y="2.96" width="27.17" height="27.17"/>
  <rect class="cls-3" x="136.77" y="2.96" width="22.75" height="27.17"/>
  <polygon class="cls-1" points="18.11 9.97 6.79 9.97 2.95 6.14 18.11 6.14 18.11 9.97"/>
  <polygon class="cls-1" points="14.28 26.31 14.28 6.14 18.11 6.14 18.11 30.14 14.28 26.31"/>
  <rect class="cls-1" x="20" y="6.14" width="10.12" height="3.84"/>
  <path class="cls-1" d="M150.13,25.11c-4.73,0-8.58-3.85-8.58-8.58s3.85-8.62,8.58-8.62h5.97l3.43-3.43h-9.4c-6.67,0-12.09,5.38-12.09,12.05s5.43,12.08,12.09,12.08h9.4l-3.5-3.5h-5.9Z"/>
  <polygon class="cls-3" points="30.12 6.14 25.34 10.92 30.14 10.92 30.12 6.14"/>
</svg>